<?xml version="1.0" standalone="no"?>
<!DOCTYPE svg PUBLIC "-//W3C//DTD SVG 1.0//EN" "http://www.w3.org/TR/2001/REC-SVG-20010904/DTD/svg10.dtd">
<svg xmlns="http://www.w3.org/2000/svg" xmlns:xlink="http://www.w3.org/1999/xlink" id="body_1" width="108" height="113">

<g transform="matrix(0.16995165 0 0 0.16995165 0.09901052 -0)">
    <path d="M442.0555 433.53674C 442.0555 437.1513 440.7776 440.23648 438.22174 442.79233C 435.6659 445.34818 432.5807 446.6261 428.96616 446.6261C 425.35162 446.6261 422.26645 445.34818 419.71057 442.79233C 417.15475 440.23648 415.87683 437.1513 415.8768 433.53674C 415.87683 429.92224 417.15475 426.83704 419.71057 424.28116C 422.26645 421.72534 425.35162 420.44742 428.96616 420.4474C 432.5807 420.44742 435.6659 421.72534 438.22174 424.28116C 440.7776 426.83704 442.0555 429.92224 442.0555 433.53674C 442.0555 433.6891 442.05286 433.84134 442.04755 433.99356" stroke="none" fill="#6C63FF" fill-rule="nonzero" />
    <path transform="matrix(1 0 0 1 -282.84512 -117.55244)"  d="M822.1339 580.0736L702.6198 580.0736C 701.22473 580.07745 699.934 579.3353 699.2354 578.1278C 698.5368 576.9203 698.5368 575.4315 699.2354 574.224C 699.934 573.0164 701.22473 572.27435 702.6198 572.27814L702.6198 572.27814L822.1339 572.27814C 823.529 572.27435 824.8197 573.0165 825.5183 574.224C 826.2169 575.4315 826.2169 576.9203 825.5183 578.1278C 824.8197 579.3354 823.529 580.07745 822.1339 580.0736z" stroke="none" fill="#E6E6E6" fill-rule="nonzero" />
    <path transform="matrix(1 0 0 1 -282.84512 -117.55244)"  d="M732.3035 595.4755L702.6198 595.4755C 701.22723 595.4755 699.94037 594.7326 699.2441 593.52655C 698.5478 592.3205 698.5478 590.83466 699.2441 589.6286C 699.94037 588.42255 701.22723 587.6796 702.6198 587.6796L702.6198 587.6796L732.3035 587.6796C 733.6961 587.6796 734.983 588.42255 735.67926 589.6286C 736.37555 590.83466 736.37555 592.3205 735.67926 593.52655C 734.983 594.7326 733.6961 595.4755 732.3035 595.4755z" stroke="none" fill="#E6E6E6" fill-rule="nonzero" />
    <path transform="matrix(1 0 0 1 -282.84512 -117.55244)"  d="M729.2229 459.6466L461.21277 459.6466C 456.75995 459.64154 453.1515 456.03308 453.14642 451.58026L453.14642 451.58026L453.14642 246.71265C 453.15158 242.25992 456.76004 238.65161 461.21277 238.64665L461.21277 238.64665L729.2229 238.64665C 733.67566 238.65161 737.2842 242.25992 737.28925 246.71265L737.28925 246.71265L737.28925 451.58023C 737.2842 456.03302 733.6757 459.6415 729.2229 459.6466z" stroke="none" fill="#FFFFFF" fill-rule="nonzero" />
    <path transform="matrix(1 0 0 1 -282.84512 -117.55244)"  d="M729.2227 460.6466L461.213 460.6466C 456.2082 460.64078 452.15244 456.58502 452.1466 451.5802L452.1466 451.5802L452.1466 246.71251C 452.15247 241.7078 456.20828 237.65219 461.213 237.6466L461.213 237.6466L729.2227 237.6466C 734.2274 237.65219 738.28326 241.7078 738.2891 246.71252L738.2891 246.71252L738.2891 451.5802C 738.2833 456.58502 734.22754 460.64078 729.2227 460.6466zM461.21295 239.6466C 457.31226 239.65092 454.15112 242.81183 454.14655 246.71251L454.14655 246.71251L454.14655 451.5802C 454.1509 455.48105 457.3121 458.64224 461.21295 458.6466L461.21295 458.6466L729.2227 458.6466C 733.1236 458.64224 736.2847 455.48105 736.2891 451.5802L736.2891 451.5802L736.2891 246.71251C 736.28455 242.81184 733.1234 239.65094 729.2227 239.6466z" stroke="none" fill="#F0F0F0" fill-rule="nonzero" />
    <path transform="matrix(1 0 0 1 -282.84512 -117.55244)"  d="M453.76547 420.6466L453.76547 451.58038C 453.7716 455.6908 457.10223 459.02142 461.21265 459.02756L461.21265 459.02756L729.2231 459.02756C 733.3335 459.02142 736.6641 455.6908 736.6702 451.58038L736.6702 451.58038L736.6702 420.6466L453.76547 420.6466z" stroke="none" fill="#F0F0F0" fill-rule="nonzero" />
    <path transform="matrix(0.53919184 -0.842183 0.842183 0.53919184 -286.6331 536.9647)"  d="M595.2112 163.94028L597.2108 163.94028L597.2108 497.49988L595.2112 497.49988z" stroke="none" fill="#F0F0F0" fill-rule="nonzero" />
    <path transform="matrix(1 0 0 1 -282.84512 -117.55244)"  d="M916.1617 154.10493L283.83832 154.10493C 283.2863 154.09276 282.84512 153.64177 282.84512 153.0896C 282.84512 152.53743 283.2863 152.08644 283.83832 152.07425L283.83832 152.07425L916.1617 152.07425C 916.71375 152.08644 917.15485 152.53743 917.15485 153.0896C 917.15485 153.64177 916.71375 154.09276 916.1617 154.10493z" stroke="none" fill="#CACACA" fill-rule="nonzero" />
    <path d="M12.422971 11.16881C 12.422971 5.0004463 17.314411 0 23.34831 0C 29.38221 0 34.27365 5.0004463 34.27365 11.16881C 34.27365 17.337173 29.38221 22.33762 23.34831 22.33762C 17.314411 22.33762 12.422971 17.337173 12.422971 11.16881" stroke="none" fill="#3F3D56" fill-rule="nonzero" />
    <path d="M50.165043 11.16881C 50.165043 5.0004463 55.056484 0 61.09038 0C 67.12428 0 72.015724 5.0004463 72.015724 11.16881C 72.015724 17.337173 67.12428 22.33762 61.09038 22.33762C 55.056484 22.33762 50.165043 17.337173 50.165043 11.16881" stroke="none" fill="#3F3D56" fill-rule="nonzero" />
    <path d="M87.90712 11.16881C 87.90712 5.0004463 92.79856 0 98.83246 0C 104.866356 0 109.7578 5.0004463 109.7578 11.16881C 109.7578 17.337173 104.866356 22.33762 98.83246 22.33762C 92.79856 22.33762 87.90712 17.337173 87.90712 11.16881" stroke="none" fill="#3F3D56" fill-rule="nonzero" />
    <path transform="matrix(1 0 0 1 -282.84512 -117.55244)"  d="M893.5447 120.32075L866.7347 120.32075C 865.6293 120.34273 864.7446 121.24512 864.7446 122.350746C 864.7446 123.456375 865.6293 124.358765 866.7347 124.380745L866.7347 124.380745L893.5447 124.380745C 894.6501 124.358765 895.5347 123.456375 895.5347 122.350746C 895.5347 121.24512 894.6501 120.34273 893.5447 120.32075z" stroke="none" fill="#3F3D56" fill-rule="nonzero" />
    <path transform="matrix(1 0 0 1 -282.84512 -117.55244)"  d="M893.5447 127.94074L866.7347 127.94074C 865.6292 127.96262 864.74445 128.86505 864.74445 129.97075C 864.74445 131.07645 865.6292 131.97888 866.7347 132.00075L866.7347 132.00075L893.5447 132.00075C 894.6501 131.97876 895.5347 131.07637 895.5347 129.97075C 895.5347 128.86513 894.6501 127.96273 893.5447 127.94075L893.5447 127.94075L893.5447 127.94074z" stroke="none" fill="#3F3D56" fill-rule="nonzero" />
    <path transform="matrix(1 0 0 1 -282.84512 -117.55244)"  d="M893.5447 135.55074L866.7347 135.55074C 865.6293 135.57272 864.7446 136.47511 864.7446 137.58073C 864.7446 138.68636 865.6293 139.58875 866.7347 139.61073L866.7347 139.61073L893.5447 139.61073C 894.6501 139.58875 895.5347 138.68636 895.5347 137.58073C 895.5347 136.47511 894.6501 135.57272 893.5447 135.55074z" stroke="none" fill="#3F3D56" fill-rule="nonzero" />
    <path d="M347.518 650.023L360.408 650.022L366.54 600.305L347.516 600.306L347.518 650.023L347.518 650.023" stroke="none" fill="#FFB6B6" fill-rule="nonzero" />
    <path transform="matrix(1 0 0 1 -282.84512 -117.55244)"  d="M627.0755 763.367L630.7035 763.3669L644.8679 757.6065L652.45966 763.36597L652.46063 763.36597C 661.3946 763.36646 668.63684 770.6086 668.63745 779.5425L668.63745 779.5425L668.63745 780.0682L627.07623 780.0697L627.0755 763.367z" stroke="none" fill="#2F2E41" fill-rule="nonzero" />
    <path d="M231.053 633.265L242.589 639.014L270.256 597.254L253.229 588.768L231.053 633.265L231.053 633.265" stroke="none" fill="#FFB6B6" fill-rule="nonzero" />
    <path transform="matrix(1 0 0 1 -282.84512 -117.55244)"  d="M512.83264 745.5841L516.0798 747.20245L531.3264 748.3657L535.5516 756.907L535.5525 756.9075C 543.548 760.8932 546.799 770.6056 542.8142 778.6016L542.8142 778.6016L542.5797 779.0721L505.38235 760.53314L512.83264 745.5841z" stroke="none" fill="#2F2E41" fill-rule="nonzero" />
    <path transform="matrix(1 0 0 1 -282.84512 -117.55244)"  d="M636.0742 541.7787L554.1189 543.9167L555.5442 583.8254C 555.5442 583.8254 554.1189 594.5152 556.9695 597.36584C 559.82007 600.2165 561.2454 600.2165 559.8201 605.205C 558.39484 610.19354 554.71 657.85785 554.71 657.85785C 554.71 657.85785 521.07324 717.33344 522.49854 718.7588C 523.9238 720.18414 525.3492 718.7588 523.9238 722.3221C 522.4985 725.8854 521.0732 724.4601 522.49854 725.8854C 523.76105 727.2466 524.9505 728.67395 526.0618 730.1613L526.0618 730.1613L549.2918 730.1613C 549.2918 730.1613 550.5909 723.0348 550.5909 722.32214C 550.5909 721.6095 552.0162 717.33356 552.0162 716.6209C 552.0162 715.90826 592.6023 672.9073 592.6023 672.9073L592.6023 672.9073L601.1542 601.6418L621.82117 671.48193C 621.82117 671.48193 621.82117 732.77026 623.24646 734.19556C 624.67175 735.62085 624.67175 734.9082 623.9591 737.75885C 623.24646 740.6095 620.3958 739.89685 622.5338 742.0348C 624.6718 744.1727 625.38446 740.6095 624.6718 744.1728L624.6718 744.1728L623.95917 747.7361L651.3388 748.04193C 651.3388 748.04193 654.18945 742.03485 652.7641 739.8969C 651.33875 737.759 651.4243 738.3425 653.1632 734.8438C 654.9021 731.3451 655.61475 730.63245 654.9021 729.9198C 654.18945 729.20715 654.18945 725.4166 654.18945 725.4166C 654.18945 725.4166 643.9135 585.25085 643.9135 583.1129C 643.8598 582.01276 644.06244 580.9152 644.5055 579.90686L644.5055 579.90686L644.5055 577.0049L641.7755 566.72186L636.0742 541.7787z" stroke="none" fill="#2F2E41" fill-rule="nonzero" />
    <path d="M375.32733 217.92747C 375.32733 232.74023 370.09024 245.38373 359.61603 255.85794C 349.14185 266.33215 336.49835 271.56927 321.68558 271.56924C 306.8728 271.56927 294.22934 266.33215 283.75513 255.85794C 273.28094 245.38373 268.04382 232.74023 268.04382 217.92747C 268.04382 203.11472 273.28094 190.47124 283.75513 179.99701C 294.22934 169.52281 306.8728 164.2857 321.68558 164.2857C 336.49835 164.2857 349.14185 169.52281 359.61603 179.99701C 370.09024 190.47124 375.32733 203.11472 375.32733 217.92747C 375.32733 218.5517 375.31647 219.17572 375.29468 219.79955" stroke="none" fill="#6C63FF" fill-rule="nonzero" />
    <path transform="matrix(1 0 0 1 -282.84512 -117.55244)"  d="M592.214 360.57507C 591.4542 360.57288 590.7074 360.37836 590.0431 360.00964C 588.595 359.22864 587.6972 357.71106 587.7101 356.0658L587.7101 356.0658L587.7101 318.892C 587.7101 317.25027 588.6041 315.73883 590.0429 314.94824C 591.48175 314.15762 593.23694 314.21338 594.6227 315.09366L594.6227 315.09366L629.88586 333.68057C 631.18555 334.50626 631.9728 335.93915 631.9728 337.4789C 631.9728 339.01868 631.18555 340.45157 629.88586 341.27725L629.88586 341.27725L594.6227 359.86417C 593.90405 360.326 593.0683 360.57266 592.214 360.57507z" stroke="none" fill="#FFFFFF" fill-rule="nonzero" />
    <path transform="matrix(1 0 0 1 -282.84512 -117.55244)"  d="M610.6564 406.8611C 610.6564 406.8611 583.2581 404.1213 581.4315 406.8611C 580.23865 409.11218 579.61176 411.61978 579.605 414.1673C 579.605 414.1673 568.6457 418.73367 566.8191 416.9071C 564.9925 415.08054 563.16595 409.60092 557.6863 411.42743C 552.2066 413.25394 541.71 444.85785 541.71 444.85785C 541.71 444.85785 542.71 444.85785 548.5535 474.44348C 552.49554 494.40167 551.84344 510.7928 552.2759 521.95416C 552.3471 523.79315 549.65857 530.2938 549.71 531.85785C 549.9392 538.82587 552.76685 538.2269 553.1199 539.2861C 554.03314 542.0259 548.5535 558.46484 581.4314 558.46484C 614.30927 558.46484 638.05457 556.63837 638.05457 550.2454C 638.05457 547.0217 641.38885 545.13385 640.70996 534.85785C 640.5236 532.0372 635.66345 522.41046 635.62836 519.40704C 635.5689 515.52997 635.71356 511.6524 636.0617 507.79047C 636.3988 503.93115 637.06555 500.1077 638.0545 496.36206C 643.5341 476.26987 645.7099 439.85785 645.7099 439.85785L645.7099 439.85785L636.7099 421.85785L617.0491 418.73364C 617.0491 418.73364 616.13605 407.77435 610.6564 406.8611z" stroke="none" fill="#3F3D56" fill-rule="nonzero" />
    <path transform="matrix(0.96505857 -0.2620341 0.2620341 0.96505857 -360.94815 51.94964)"  d="M620.2394 377.60806C 620.2394 384.15866 617.9234 389.74994 613.29144 394.38193C 608.6594 399.01392 603.0682 401.3299 596.5176 401.32986C 589.96704 401.3299 584.37573 399.01392 579.7437 394.38193C 575.11176 389.74994 572.7958 384.15866 572.7958 377.60806C 572.7958 371.05746 575.11176 365.4662 579.7437 360.8342C 584.37573 356.20224 589.96704 353.88626 596.5176 353.88626C 603.0682 353.88626 608.6594 356.20224 613.29144 360.8342C 617.9234 365.4662 620.2394 371.05746 620.2394 377.60806C 620.2394 377.8841 620.23456 378.16006 620.2249 378.43594" stroke="none" fill="#FFB6B6" fill-rule="nonzero" />
    <path transform="matrix(1 0 0 1 -282.84512 -117.55244)"  d="M709.9529 740.79144L710.66003 724.8913C 718.0318 720.95087 726.25397 718.8695 734.6126 718.82794C 723.1086 728.23334 724.54626 746.3637 716.74677 759.0117C 711.758 766.9648 703.423 772.2173 694.0957 773.2858L694.0957 773.2858L684.4687 779.1801C 681.7953 764.27637 685.7819 748.9494 695.37836 737.2372C 698.0707 734.0169 701.1578 731.14844 704.56683 728.6995C 706.8726 734.7792 709.9529 740.79144 709.9529 740.79144z" stroke="none" fill="#F2F2F2" fill-rule="nonzero" />
    <path transform="matrix(1 0 0 1 -282.84512 -117.55244)"  d="M837.59546 780.89435C 837.5967 781.3067 837.4335 781.7025 837.1419 781.994C 836.85034 782.2856 836.4545 782.44885 836.0422 782.4476L836.0422 782.4476L417.992 782.4476C 417.1342 782.4476 416.43878 781.7522 416.43878 780.89435C 416.43878 780.0365 417.1342 779.3411 417.992 779.3411L417.992 779.3411L836.0422 779.3411C 836.4545 779.3399 836.8503 779.5031 837.14185 779.7947C 837.4334 780.08624 837.5967 780.482 837.59546 780.89435z" stroke="none" fill="#CCCCCC" fill-rule="nonzero" />
    <path transform="matrix(1 0 0 1 -282.84512 -117.55244)"  d="M705.3981 546.09314C 703.18384 546.1341 701.06525 545.19226 699.6123 543.521C 698.1593 541.84973 697.52124 539.6207 697.8698 537.4338L697.8698 537.4338L656.3399 514.69446L668.49475 508.12067L706.98035 531.23486C 710.697 532.08246 713.1923 535.57605 712.7887 539.3667C 712.385 543.1574 709.20996 546.0471 705.39813 546.0931L705.39813 546.0931L705.3981 546.09314z" stroke="none" fill="#FFB8B8" fill-rule="nonzero" />
    <path transform="matrix(1 0 0 1 -282.84512 -117.55244)"  d="M690.2491 534.28436L658.52216 522.66846L644.2491 509.28436L640.70264 507.47806L628.4799 498.899L628.4435 498.79083L609.0221 441.38123C 607.1707 431.59375 613.27313 422.0606 622.93665 419.64417C 628.143 418.34897 633.6547 419.34192 638.08185 422.37253C 642.5089 425.40317 645.4288 430.18225 646.10504 435.5045L646.10504 435.5045L652.3553 484.70703L670.716 501.40662L675.24915 502.28436L676.2926 507.16568L697.24915 522.28436L690.2491 534.28436z" stroke="none" fill="#3F3D56" fill-rule="nonzero" />
    <path transform="matrix(1 0 0 1 -282.84512 -117.55244)"  d="M565.84357 305.80536C 565.89557 308.0193 564.9643 310.14258 563.30035 311.60385C 561.63635 313.06512 559.4106 313.71432 557.2219 313.37674L557.2219 313.37674L534.6901 355.01956L528.0558 342.8977L550.97766 304.29727C 551.8068 300.57645 555.28784 298.06375 559.0805 298.4485C 562.87317 298.83325 565.7786 301.99384 565.84357 305.80536z" stroke="none" fill="#FFB8B8" fill-rule="nonzero" />
    <path transform="matrix(1 0 0 1 -282.84512 -117.55244)"  d="M569.0242 421.88516L554.8961 401.32755C 554.8961 401.32755 557.1174 401.45822 555.7101 396.85788C 555.327 395.60565 551.632 391.28494 551.2128 389.78696C 550.8434 388.46667 550.4656 387.05887 550.08936 385.57742C 548.7404 380.2655 541.45276 375.35397 542.7101 368.85785C 548.7101 337.85785 551.7101 331.85785 552.63074 326.89215C 552.63074 326.89215 547.41437 307.5536 538.9481 319.4984C 530.4819 331.44324 517.063 361.80353 520.6148 376.88986C 524.1666 391.9762 537.74384 441.19147 541.9228 444.85175C 546.10175 448.51202 569.0242 421.88516 569.0242 421.88516z" stroke="none" fill="#3F3D56" fill-rule="nonzero" />
    <path transform="matrix(1 0 0 1 -282.84512 -117.55244)"  d="M613.727 349.54834C 611.97034 349.49615 612.57336 346.185 611.1581 345.12872C 611.1512 345.16077 611.14404 345.19275 611.13666 345.22467C 610.75574 346.69305 609.4602 347.74026 607.9446 347.80493C 606.42896 347.8696 605.04895 346.93652 604.5444 345.50592C 604.0681 343.87015 602.8267 342.5678 601.2156 342.01373C 601.12744 345.08273 598.80597 347.7464 596.0365 349.07196C 593.267 350.39752 590.10925 350.6181 587.03925 350.6635C 583.969 350.53958 580.89465 350.7724 577.878 351.35736C 574.901 352.10858 572.0053 353.87488 570.7334 356.66937C 569.4614 359.46387 570.36896 363.31128 573.1502 364.61188C 570.9956 364.62335 569.16736 366.4013 568.42236 368.42303C 567.81165 370.49673 567.65234 372.67722 567.9552 374.8177C 568.5607 382.7434 570.03705 391.27637 575.8083 396.7423C 580.2068 400.90814 586.50256 402.5863 592.5606 402.56207C 598.6186 402.53778 597.55347 401.98096 603.41095 400.43475C 603.41095 400.43475 608.9798 384.4702 607.5775 382.89975C 606.17523 381.3293 605.0105 379.31967 605.2643 377.22958C 605.51807 375.1395 607.7642 373.26718 609.7135 374.06284C 609.38574 373.22495 609.1388 373.06534 608.98413 373.10785C 609.0826 372.8697 609.1686 372.62662 609.2417 372.37952C 609.986 369.82504 611.9115 367.78323 614.418 366.89044C 616.97406 366.0609 619.77637 366.90897 621.44354 369.0166C 627.8574 363.00128 623.87823 349.8498 613.727 349.54834z" stroke="none" fill="#2F2E41" fill-rule="nonzero" />
</g>
</svg>